<svg width="197" height="49" fill="none" xmlns="http://www.w3.org/2000/svg"><path d="M83.875 24.15c0 1.783-.367 3.342-1.1 4.675C82.058 30.142 81 31.167 79.6 31.9c-1.383.733-3.042 1.1-4.975 1.1h-5.9V15.35h5.9c1.933 0 3.592.367 4.975 1.1 1.4.717 2.458 1.733 3.175 3.05.733 1.317 1.1 2.867 1.1 4.65ZM74.4 30.425c2.117 0 3.742-.55 4.875-1.65 1.133-1.1 1.7-2.642 1.7-4.625s-.567-3.525-1.7-4.625-2.758-1.65-4.875-1.65h-2.825v12.55H74.4ZM99.593 28.3c0 .867-.209 1.675-.625 2.425-.417.733-1.05 1.325-1.9 1.775-.85.45-1.892.675-3.125.675-1.2 0-2.275-.208-3.225-.625-.95-.433-1.709-1.033-2.275-1.8-.567-.767-.892-1.65-.975-2.65h3.05c.083.767.408 1.425.975 1.975.583.55 1.358.825 2.325.825.866 0 1.533-.233 2-.7.483-.467.725-1.067.725-1.8 0-.633-.175-1.15-.525-1.55a3.614 3.614 0 0 0-1.3-.975c-.517-.233-1.225-.5-2.125-.8-1.1-.35-2-.7-2.7-1.05a4.919 4.919 0 0 1-1.75-1.525c-.484-.667-.725-1.542-.725-2.625 0-.95.233-1.783.7-2.5.466-.717 1.133-1.267 2-1.65.866-.4 1.866-.6 3-.6 1.8 0 3.225.433 4.275 1.3 1.066.867 1.675 2 1.825 3.4h-3.075a2.914 2.914 0 0 0-.95-1.7c-.5-.483-1.192-.725-2.075-.725-.8 0-1.442.208-1.925.625-.484.4-.725.983-.725 1.75 0 .6.166 1.1.5 1.5.333.383.75.692 1.25.925.516.217 1.216.475 2.1.775 1.116.35 2.025.708 2.725 1.075.716.35 1.316.867 1.8 1.55.5.683.75 1.583.75 2.7Zm12.178-13.1c2.1 0 3.85.517 5.25 1.55s2.325 2.442 2.775 4.225h-3a4.776 4.776 0 0 0-1.9-2.275c-.867-.567-1.9-.85-3.1-.85-1.1 0-2.092.258-2.975.775-.867.517-1.55 1.25-2.05 2.2-.484.95-.725 2.067-.725 3.35 0 1.35.25 2.508.75 3.475.5.967 1.2 1.708 2.1 2.225.916.5 1.975.75 3.175.75 1.466 0 2.725-.45 3.775-1.35 1.05-.917 1.683-2.167 1.9-3.75h-6.475v-2.1h8.875v2.725a8.458 8.458 0 0 1-1.4 3.55c-.717 1.05-1.675 1.892-2.875 2.525-1.184.633-2.542.95-4.075.95-1.717 0-3.234-.383-4.55-1.15a7.872 7.872 0 0 1-3.05-3.175c-.717-1.367-1.075-2.925-1.075-4.675s.358-3.3 1.075-4.65c.716-1.367 1.725-2.425 3.025-3.175 1.316-.767 2.833-1.15 4.55-1.15ZM138.557 33h-2.85l-8.575-13.025V33h-2.85V15.375h2.85l8.575 13.075V15.375h2.85V33Zm7.549-6.85V33h-2.85V15.35h6c2.034 0 3.559.483 4.575 1.45 1.034.967 1.55 2.292 1.55 3.975 0 1.667-.525 2.983-1.575 3.95-1.05.95-2.566 1.425-4.55 1.425h-3.15Zm2.85-2.325c2.35 0 3.525-1.017 3.525-3.05 0-1-.283-1.758-.85-2.275-.55-.533-1.441-.8-2.675-.8h-2.85v6.125h2.85Zm18.349-8.7c1.634 0 3.109.383 4.425 1.15 1.334.767 2.375 1.842 3.125 3.225.767 1.367 1.15 2.917 1.15 4.65 0 1.733-.383 3.292-1.15 4.675a8.299 8.299 0 0 1-3.125 3.225c-1.316.767-2.791 1.15-4.425 1.15-1.65 0-3.141-.383-4.475-1.15a8.55 8.55 0 0 1-3.125-3.225c-.766-1.383-1.15-2.942-1.15-4.675 0-1.733.384-3.283 1.15-4.65.767-1.383 1.809-2.458 3.125-3.225 1.334-.767 2.825-1.15 4.475-1.15Zm0 2.65c-1.133 0-2.141.258-3.025.775-.883.517-1.575 1.258-2.075 2.225-.483.967-.725 2.092-.725 3.375s.242 2.408.725 3.375c.5.967 1.192 1.708 2.075 2.225.884.517 1.892.775 3.025.775 1.117 0 2.109-.258 2.975-.775.884-.517 1.567-1.258 2.05-2.225.5-.967.75-2.092.75-3.375s-.25-2.408-.75-3.375c-.483-.967-1.166-1.708-2.05-2.225-.866-.517-1.858-.775-2.975-.775Zm27.976 6.375c0 1.783-.366 3.342-1.1 4.675-.716 1.317-1.775 2.342-3.175 3.075-1.383.733-3.041 1.1-4.975 1.1h-5.9V15.35h5.9c1.934 0 3.592.367 4.975 1.1 1.4.717 2.459 1.733 3.175 3.05.734 1.317 1.1 2.867 1.1 4.65Zm-9.475 6.275c2.117 0 3.742-.55 4.875-1.65 1.134-1.1 1.7-2.642 1.7-4.625s-.566-3.525-1.7-4.625c-1.133-1.1-2.758-1.65-4.875-1.65h-2.825v12.55h2.825Z" fill="#1C1B1E"/><circle cx="24.5" cy="24.5" r="24.5" fill="url(#a)"/><path d="M32.875 24.15c0 1.783-.367 3.342-1.1 4.675C31.058 30.142 30 31.167 28.6 31.9c-1.383.733-3.042 1.1-4.975 1.1h-5.9V15.35h5.9c1.933 0 3.592.367 4.975 1.1 1.4.717 2.458 1.733 3.175 3.05.733 1.317 1.1 2.867 1.1 4.65ZM23.4 30.425c2.117 0 3.742-.55 4.875-1.65 1.133-1.1 1.7-2.642 1.7-4.625s-.567-3.525-1.7-4.625-2.758-1.65-4.875-1.65h-2.825v12.55H23.4Z" fill="#fff"/><defs><linearGradient id="a" x1="69" y1="0" x2="-18.5" y2="54.5" gradientUnits="userSpaceOnUse"><stop stop-color="#A248D9"/><stop offset="1" stop-color="#ECCDFF"/></linearGradient></defs></svg>